<?xml version="1.0" encoding="UTF-8" ?>
<svg version="1.1" width="32" height="32" xmlns="http://www.w3.org/2000/svg" shape-rendering="crispEdges">
<rect x="5" y="5" width="1" height="1" fill="#F1EDFF" />
<rect x="6" y="5" width="1" height="1" fill="#F1EDFF" />
<rect x="9" y="5" width="1" height="1" fill="#28202E" />
<rect x="10" y="5" width="1" height="1" fill="#F1EDFF" />
<rect x="4" y="6" width="1" height="1" fill="#F1EDFF" />
<rect x="5" y="6" width="1" height="1" fill="#F1EDFF" />
<rect x="6" y="6" width="1" height="1" fill="#F1EDFF" />
<rect x="7" y="6" width="1" height="1" fill="#F1EDFF" />
<rect x="8" y="6" width="1" height="1" fill="#28202E" />
<rect x="9" y="6" width="1" height="1" fill="#F1EDFF" />
<rect x="10" y="6" width="1" height="1" fill="#28202E" />
<rect x="11" y="6" width="1" height="1" fill="#F1EDFF" />
<rect x="3" y="7" width="1" height="1" fill="#F1EDFF" />
<rect x="4" y="7" width="1" height="1" fill="#F1EDFF" />
<rect x="5" y="7" width="1" height="1" fill="#F1EDFF" />
<rect x="6" y="7" width="1" height="1" fill="#F1EDFF" />
<rect x="7" y="7" width="1" height="1" fill="#F1EDFF" />
<rect x="8" y="7" width="1" height="1" fill="#F1EDFF" />
<rect x="9" y="7" width="1" height="1" fill="#28202E" />
<rect x="10" y="7" width="1" height="1" fill="#F1EDFF" />
<rect x="11" y="7" width="1" height="1" fill="#28202E" />
<rect x="12" y="7" width="1" height="1" fill="#F1EDFF" />
<rect x="3" y="8" width="1" height="1" fill="#F1EDFF" />
<rect x="4" y="8" width="1" height="1" fill="#F1EDFF" />
<rect x="5" y="8" width="1" height="1" fill="#F1EDFF" />
<rect x="6" y="8" width="1" height="1" fill="#F1EDFF" />
<rect x="7" y="8" width="1" height="1" fill="#F1EDFF" />
<rect x="8" y="8" width="1" height="1" fill="#28202E" />
<rect x="9" y="8" width="1" height="1" fill="#F1EDFF" />
<rect x="10" y="8" width="1" height="1" fill="#28202E" />
<rect x="11" y="8" width="1" height="1" fill="#F1EDFF" />
<rect x="12" y="8" width="1" height="1" fill="#28202E" />
<rect x="4" y="9" width="1" height="1" fill="#F1EDFF" />
<rect x="5" y="9" width="1" height="1" fill="#F1EDFF" />
<rect x="6" y="9" width="1" height="1" fill="#F1EDFF" />
<rect x="7" y="9" width="1" height="1" fill="#F1EDFF" />
<rect x="8" y="9" width="1" height="1" fill="#F1EDFF" />
<rect x="9" y="9" width="1" height="1" fill="#28202E" />
<rect x="10" y="9" width="1" height="1" fill="#F1EDFF" />
<rect x="11" y="9" width="1" height="1" fill="#28202E" />
<rect x="5" y="10" width="1" height="1" fill="#F1EDFF" />
<rect x="6" y="10" width="1" height="1" fill="#F1EDFF" />
<rect x="7" y="10" width="1" height="1" fill="#F1EDFF" />
<rect x="8" y="10" width="1" height="1" fill="#28202E" />
<rect x="9" y="10" width="1" height="1" fill="#F1EDFF" />
<rect x="10" y="10" width="1" height="1" fill="#28202E" />
<rect x="6" y="11" width="1" height="1" fill="#F1EDFF" />
<rect x="7" y="11" width="1" height="1" fill="#F1EDFF" />
<rect x="8" y="11" width="1" height="1" fill="#F1EDFF" />
<rect x="9" y="11" width="1" height="1" fill="#28202E" />
<rect x="7" y="12" width="1" height="1" fill="#F1EDFF" />
<rect x="8" y="12" width="1" height="1" fill="#28202E" />
<rect x="21" y="21" width="1" height="1" fill="#28202E" />
<rect x="22" y="21" width="1" height="1" fill="#28202E" />
<rect x="25" y="21" width="1" height="1" fill="#B0FF82" />
<rect x="26" y="21" width="1" height="1" fill="#28202E" />
<rect x="20" y="22" width="1" height="1" fill="#28202E" />
<rect x="21" y="22" width="1" height="1" fill="#28202E" />
<rect x="22" y="22" width="1" height="1" fill="#28202E" />
<rect x="23" y="22" width="1" height="1" fill="#28202E" />
<rect x="24" y="22" width="1" height="1" fill="#B0FF82" />
<rect x="25" y="22" width="1" height="1" fill="#28202E" />
<rect x="26" y="22" width="1" height="1" fill="#B0FF82" />
<rect x="27" y="22" width="1" height="1" fill="#28202E" />
<rect x="19" y="23" width="1" height="1" fill="#28202E" />
<rect x="20" y="23" width="1" height="1" fill="#28202E" />
<rect x="21" y="23" width="1" height="1" fill="#28202E" />
<rect x="22" y="23" width="1" height="1" fill="#28202E" />
<rect x="23" y="23" width="1" height="1" fill="#28202E" />
<rect x="24" y="23" width="1" height="1" fill="#28202E" />
<rect x="25" y="23" width="1" height="1" fill="#B0FF82" />
<rect x="26" y="23" width="1" height="1" fill="#28202E" />
<rect x="27" y="23" width="1" height="1" fill="#B0FF82" />
<rect x="28" y="23" width="1" height="1" fill="#28202E" />
<rect x="19" y="24" width="1" height="1" fill="#28202E" />
<rect x="20" y="24" width="1" height="1" fill="#28202E" />
<rect x="21" y="24" width="1" height="1" fill="#28202E" />
<rect x="22" y="24" width="1" height="1" fill="#28202E" />
<rect x="23" y="24" width="1" height="1" fill="#28202E" />
<rect x="24" y="24" width="1" height="1" fill="#B0FF82" />
<rect x="25" y="24" width="1" height="1" fill="#28202E" />
<rect x="26" y="24" width="1" height="1" fill="#B0FF82" />
<rect x="27" y="24" width="1" height="1" fill="#28202E" />
<rect x="28" y="24" width="1" height="1" fill="#B0FF82" />
<rect x="20" y="25" width="1" height="1" fill="#28202E" />
<rect x="21" y="25" width="1" height="1" fill="#28202E" />
<rect x="22" y="25" width="1" height="1" fill="#28202E" />
<rect x="23" y="25" width="1" height="1" fill="#28202E" />
<rect x="24" y="25" width="1" height="1" fill="#28202E" />
<rect x="25" y="25" width="1" height="1" fill="#B0FF82" />
<rect x="26" y="25" width="1" height="1" fill="#28202E" />
<rect x="27" y="25" width="1" height="1" fill="#B0FF82" />
<rect x="21" y="26" width="1" height="1" fill="#28202E" />
<rect x="22" y="26" width="1" height="1" fill="#28202E" />
<rect x="23" y="26" width="1" height="1" fill="#28202E" />
<rect x="24" y="26" width="1" height="1" fill="#B0FF82" />
<rect x="25" y="26" width="1" height="1" fill="#28202E" />
<rect x="26" y="26" width="1" height="1" fill="#B0FF82" />
<rect x="22" y="27" width="1" height="1" fill="#28202E" />
<rect x="23" y="27" width="1" height="1" fill="#28202E" />
<rect x="24" y="27" width="1" height="1" fill="#28202E" />
<rect x="25" y="27" width="1" height="1" fill="#B0FF82" />
<rect x="23" y="28" width="1" height="1" fill="#28202E" />
<rect x="24" y="28" width="1" height="1" fill="#B0FF82" />
</svg>